<svg width="62" height="62" viewBox="0 0 62 62" fill="none" xmlns="http://www.w3.org/2000/svg">
<rect width="62" height="62" rx="8" fill="white"/>
<path d="M45.2396 44.9194V19.7994C45.2396 16.7594 42.8396 14.3594 39.7996 14.3594H39.4796C39.4796 17.7194 36.7596 20.2794 33.5596 20.2794H28.2796C24.9196 20.2794 22.3596 17.5594 22.3596 14.3594H22.0396C18.9996 14.3594 16.5996 16.7594 16.5996 19.7994V45.0794C16.5996 48.1194 18.9996 50.5194 22.0396 50.5194H39.9596C42.8396 50.3594 45.2396 47.9594 45.2396 44.9194ZM30.6796 44.5994C25.5596 44.5994 21.5596 40.4394 21.5596 35.4794C21.5596 30.3594 25.7196 26.3594 30.6796 26.3594C35.7996 26.3594 39.7996 30.5194 39.7996 35.4794C39.7996 40.5994 35.6396 44.5994 30.6796 44.5994Z" fill="#1037FD"/>
<path d="M33.7187 17.2398C35.3187 17.2398 36.4387 15.9598 36.4387 14.5198C36.4387 13.0798 35.1587 11.7998 33.7187 11.7998H28.4387C26.8388 11.7998 25.7188 13.0798 25.7188 14.5198C25.7188 15.9598 26.9987 17.2398 28.4387 17.2398H33.7187ZM34.0387 32.5998L29.0788 35.6398L27.9588 33.8798C27.4788 33.0798 26.5188 32.9198 25.7188 33.3998C24.9188 33.8798 24.7587 34.8398 25.2387 35.6398L26.8387 38.1998C27.4787 39.1598 28.9188 39.6398 29.8788 38.8398L35.4788 35.3198C36.2787 34.8398 36.4388 33.8798 35.9588 33.0798C35.7987 32.2798 34.8387 32.1198 34.0387 32.5998Z" fill="#1037FD"/>
</svg>
