<svg width="62" height="62" viewBox="0 0 62 62" fill="none" xmlns="http://www.w3.org/2000/svg">
<rect width="62" height="62" rx="8" fill="white"/>
<g clip-path="url(#clip0_1_151)">
<path d="M27.0987 43.1837C30.674 43.1838 34.147 41.9909 36.9676 39.794L47.6089 50.4352C48.4038 51.203 49.6705 51.181 50.4383 50.386C51.1872 49.6106 51.1872 48.3812 50.4383 47.6059L39.797 36.9646C45.2485 29.947 43.979 19.8389 36.9615 14.3874C29.9439 8.93584 19.8358 10.2053 14.3843 17.2229C8.93279 24.2404 10.2023 34.3486 17.2198 39.8001C20.045 41.9949 23.5212 43.1855 27.0987 43.1837ZM18.5486 18.5455C23.2708 13.8232 30.9269 13.8231 35.6492 18.5453C40.3714 23.2675 40.3715 30.9236 35.6493 35.6459C30.9272 40.3682 23.271 40.3682 18.5487 35.6461L18.5486 35.6459C13.8264 30.9581 13.7986 23.3299 18.4863 18.6077L18.5486 18.5455Z" fill="#1037FD"/>
</g>
<defs>
<clipPath id="clip0_1_151">
<rect width="40" height="40" fill="white" transform="translate(11 11)"/>
</clipPath>
</defs>
</svg>
